<svg width="109" height="20" fill="none" xmlns="http://www.w3.org/2000/svg"><path d="m18.385 7.19-5.696-.866L10.143.918a.706.706 0 0 0-1.288 0L6.31 6.324.613 7.19a.706.706 0 0 0-.41.219.772.772 0 0 0-.204.535c.003.2.08.39.217.53l4.121 4.206-.973 5.942a.784.784 0 0 0 .042.41c.05.13.134.242.243.325a.698.698 0 0 0 .755.056L9.5 16.608l5.095 2.805c.139.078.3.104.455.075.39-.07.653-.458.586-.866l-.974-5.942 4.121-4.207a.763.763 0 0 0 .209-.43.745.745 0 0 0-.606-.853Z" fill="url(#a)"/><path d="m41.385 7.19-5.696-.866L33.143.918a.706.706 0 0 0-1.288 0L29.31 6.324l-5.696.866a.706.706 0 0 0-.41.219.772.772 0 0 0-.204.535c.003.2.08.39.217.53l4.121 4.206-.974 5.942a.784.784 0 0 0 .043.41c.05.13.134.242.243.325a.698.698 0 0 0 .755.056l5.095-2.805 5.095 2.805c.139.078.3.104.455.075.39-.07.653-.458.586-.866l-.974-5.942 4.121-4.207a.763.763 0 0 0 .209-.43.745.745 0 0 0-.606-.853Z" fill="url(#b)"/><path d="m63.385 7.19-5.696-.866L55.143.918a.706.706 0 0 0-1.288 0L51.31 6.324l-5.696.866a.706.706 0 0 0-.41.219.772.772 0 0 0-.204.535c.003.2.08.39.217.53l4.121 4.206-.974 5.942a.784.784 0 0 0 .043.41c.05.13.134.242.243.325a.698.698 0 0 0 .755.056l5.095-2.805 5.095 2.805c.139.078.3.104.455.075.39-.07.653-.458.586-.866l-.974-5.942 4.121-4.207a.763.763 0 0 0 .209-.43.745.745 0 0 0-.606-.853Z" fill="url(#c)"/><path d="m86.385 7.19-5.696-.866L78.143.918a.706.706 0 0 0-1.288 0L74.31 6.324l-5.696.866a.706.706 0 0 0-.41.219.772.772 0 0 0-.204.535c.003.2.08.39.217.53l4.121 4.206-.974 5.942a.784.784 0 0 0 .043.41c.05.13.134.242.243.325a.698.698 0 0 0 .755.056l5.095-2.805 5.095 2.805c.139.078.3.104.455.075.39-.07.653-.458.586-.866l-.974-5.942 4.121-4.207a.763.763 0 0 0 .209-.43.745.745 0 0 0-.606-.853Z" fill="url(#d)"/><path d="m108.385 7.19-5.696-.866-2.546-5.406a.706.706 0 0 0-1.288 0L96.31 6.324l-5.696.866a.706.706 0 0 0-.41.219.772.772 0 0 0-.204.535c.003.2.08.39.217.53l4.121 4.206-.974 5.942a.784.784 0 0 0 .043.41c.05.13.134.242.243.325a.698.698 0 0 0 .755.056l5.095-2.805 5.095 2.805c.139.078.3.104.455.075.39-.07.653-.458.586-.866l-.974-5.942 4.121-4.207a.769.769 0 0 0 .209-.43.745.745 0 0 0-.606-.853Z" fill="#F5E9C7"/><mask id="f" style="mask-type:alpha" maskUnits="userSpaceOnUse" x="89" y="0" width="20" height="20"><path d="m108.385 7.19-5.696-.866-2.546-5.406a.706.706 0 0 0-1.288 0L96.31 6.324l-5.696.866a.706.706 0 0 0-.41.219.772.772 0 0 0-.204.535c.003.2.08.39.217.53l4.121 4.206-.974 5.942a.784.784 0 0 0 .043.41c.05.13.134.242.243.325a.698.698 0 0 0 .755.056l5.095-2.805 5.095 2.805c.139.078.3.104.455.075.39-.07.653-.458.586-.866l-.974-5.942 4.121-4.207a.769.769 0 0 0 .209-.43.745.745 0 0 0-.606-.853Z" fill="url(#e)"/></mask><g mask="url(#f)"><path d="m108.385 7.19-5.696-.866-2.546-5.406a.706.706 0 0 0-1.288 0L96.31 6.324l-5.696.866a.706.706 0 0 0-.41.219.772.772 0 0 0-.204.535c.003.2.08.39.217.53l4.121 4.206-.974 5.942a.784.784 0 0 0 .043.41c.05.13.134.242.243.325a.698.698 0 0 0 .755.056l5.095-2.805 5.095 2.805c.139.078.3.104.455.075.39-.07.653-.458.586-.866l-.974-5.942 4.121-4.207a.769.769 0 0 0 .209-.43.745.745 0 0 0-.606-.853Z" fill="url(#g)"/><path fill="#F5E9C7" d="M98.999-1.5h22v21h-22z"/></g><defs><linearGradient id="a" x1="9.499" y1=".5" x2="9.499" y2="19.5" gradientUnits="userSpaceOnUse"><stop stop-color="#FFC327"/><stop offset="1" stop-color="#FF7438"/></linearGradient><linearGradient id="b" x1="32.499" y1=".5" x2="32.499" y2="19.5" gradientUnits="userSpaceOnUse"><stop stop-color="#FFC327"/><stop offset="1" stop-color="#FF7438"/></linearGradient><linearGradient id="c" x1="54.499" y1=".5" x2="54.499" y2="19.5" gradientUnits="userSpaceOnUse"><stop stop-color="#FFC327"/><stop offset="1" stop-color="#FF7438"/></linearGradient><linearGradient id="d" x1="77.499" y1=".5" x2="77.499" y2="19.5" gradientUnits="userSpaceOnUse"><stop stop-color="#FFC327"/><stop offset="1" stop-color="#FF7438"/></linearGradient><linearGradient id="e" x1="99.499" y1=".5" x2="99.499" y2="19.5" gradientUnits="userSpaceOnUse"><stop stop-color="#FFC327"/><stop offset="1" stop-color="#FF7438"/></linearGradient><linearGradient id="g" x1="99.499" y1=".5" x2="99.499" y2="19.5" gradientUnits="userSpaceOnUse"><stop stop-color="#FFC327"/><stop offset="1" stop-color="#FF7438"/></linearGradient></defs></svg>