<svg xmlns="http://www.w3.org/2000/svg" xmlns:xlink="http://www.w3.org/1999/xlink" version="1.1" width="256" height="256" viewBox="0 0 256 256" xml:space="preserve">

<defs>
</defs>
<g style="stroke: none; stroke-width: 0; stroke-dasharray: none; stroke-linecap: butt; stroke-linejoin: miter; stroke-miterlimit: 10; fill: none; fill-rule: nonzero; opacity: 1;" transform="translate(1.4065934065934016 1.4065934065934016) scale(2.81 2.81)" >
	<path d="M 39.986 27.2 c 0.192 0 0.387 -0.055 0.558 -0.171 c 0.458 -0.309 0.579 -0.93 0.27 -1.388 l -6.908 -10.244 c -0.309 -0.458 -0.93 -0.579 -1.388 -0.27 s -0.579 0.93 -0.27 1.388 l 6.908 10.244 C 39.349 27.046 39.665 27.2 39.986 27.2 z" style="stroke: none; stroke-width: 1; stroke-dasharray: none; stroke-linecap: butt; stroke-linejoin: miter; stroke-miterlimit: 10; fill: rgb(0,0,0); fill-rule: nonzero; opacity: 1;" transform=" matrix(1 0 0 1 0 0) " stroke-linecap="round" />
	<path d="M 27.42 18.501 c -0.458 0.309 -0.579 0.93 -0.27 1.388 l 3.092 4.585 c 0.193 0.287 0.509 0.441 0.83 0.441 c 0.192 0 0.387 -0.055 0.558 -0.171 c 0.458 -0.309 0.579 -0.93 0.27 -1.388 l -3.092 -4.585 C 28.499 18.313 27.878 18.192 27.42 18.501 z" style="stroke: none; stroke-width: 1; stroke-dasharray: none; stroke-linecap: butt; stroke-linejoin: miter; stroke-miterlimit: 10; fill: rgb(0,0,0); fill-rule: nonzero; opacity: 1;" transform=" matrix(1 0 0 1 0 0) " stroke-linecap="round" />
	<path d="M 32.518 26.061 c -0.458 0.309 -0.579 0.931 -0.27 1.388 l 1.413 2.094 c 0.193 0.287 0.509 0.441 0.83 0.441 c 0.192 0 0.387 -0.055 0.558 -0.171 c 0.458 -0.309 0.579 -0.931 0.27 -1.388 l -1.413 -2.094 C 33.597 25.873 32.976 25.751 32.518 26.061 z" style="stroke: none; stroke-width: 1; stroke-dasharray: none; stroke-linecap: butt; stroke-linejoin: miter; stroke-miterlimit: 10; fill: rgb(0,0,0); fill-rule: nonzero; opacity: 1;" transform=" matrix(1 0 0 1 0 0) " stroke-linecap="round" />
	<path d="M 37.263 13.018 l 3.117 4.622 c 0.193 0.287 0.509 0.441 0.83 0.441 c 0.192 0 0.387 -0.055 0.558 -0.171 c 0.458 -0.309 0.579 -0.93 0.27 -1.388 L 38.921 11.9 c -0.309 -0.458 -0.931 -0.579 -1.388 -0.27 C 37.075 11.938 36.954 12.56 37.263 13.018 z" style="stroke: none; stroke-width: 1; stroke-dasharray: none; stroke-linecap: butt; stroke-linejoin: miter; stroke-miterlimit: 10; fill: rgb(0,0,0); fill-rule: nonzero; opacity: 1;" transform=" matrix(1 0 0 1 0 0) " stroke-linecap="round" />
	<path d="M 43.797 22.708 c 0.193 0.287 0.509 0.441 0.83 0.441 c 0.192 0 0.387 -0.055 0.558 -0.171 c 0.458 -0.309 0.579 -0.93 0.27 -1.388 l -1.413 -2.095 c -0.309 -0.458 -0.931 -0.579 -1.388 -0.27 c -0.458 0.309 -0.579 0.93 -0.27 1.388 L 43.797 22.708 z" style="stroke: none; stroke-width: 1; stroke-dasharray: none; stroke-linecap: butt; stroke-linejoin: miter; stroke-miterlimit: 10; fill: rgb(0,0,0); fill-rule: nonzero; opacity: 1;" transform=" matrix(1 0 0 1 0 0) " stroke-linecap="round" />
	<path d="M 90 48.801 c 0 -2.296 -1.868 -4.164 -4.164 -4.164 H 13.56 v -9.309 h 2.647 v 2.783 c 0 0.552 0.448 1 1 1 s 1 -0.448 1 -1 v -7.565 c 0 -0.552 -0.448 -1 -1 -1 s -1 0.448 -1 1 v 2.783 H 13.56 V 11.084 c 0 -3.793 3.086 -6.879 6.879 -6.879 c 1.074 0 2.106 0.254 3.048 0.723 c -1.106 1.152 -1.865 2.595 -2.177 4.2 c -0.428 2.202 0.027 4.438 1.281 6.298 l 0.988 1.465 c 0.193 0.287 0.509 0.441 0.83 0.441 c 0.192 0 0.387 -0.055 0.558 -0.171 l 12.267 -8.272 c 0.22 -0.148 0.372 -0.378 0.422 -0.638 c 0.051 -0.26 -0.004 -0.53 -0.152 -0.75 l -0.988 -1.465 c -1.254 -1.86 -3.157 -3.12 -5.359 -3.548 c -2.08 -0.405 -4.187 -0.012 -5.981 1.089 c -1.417 -0.899 -3.041 -1.371 -4.736 -1.371 c -4.896 0 -8.879 3.983 -8.879 8.879 v 33.553 H 4.164 C 1.868 44.637 0 46.505 0 48.801 s 1.868 4.164 4.164 4.164 H 4.96 v 10.37 c 0 7.073 3.883 13.245 9.62 16.531 v 6.93 c 0 0.553 0.448 1 1 1 h 8.84 c 0.552 0 1 -0.447 1 -1 v -4.409 h 39.16 v 4.409 c 0 0.553 0.447 1 1 1 h 8.84 c 0.553 0 1 -0.447 1 -1 v -6.421 C 81.68 77.249 86 70.795 86 63.335 V 52.948 C 88.219 52.86 90 51.041 90 48.801 z M 29.54 4.331 c 0.41 0 0.823 0.04 1.235 0.12 c 1.678 0.326 3.127 1.286 4.083 2.703 l 0.429 0.636 l -10.609 7.154 l -0.429 -0.636 c -0.956 -1.417 -1.302 -3.121 -0.976 -4.798 c 0.326 -1.678 1.286 -3.127 2.703 -4.083 C 27.046 4.705 28.278 4.331 29.54 4.331 z M 23.42 85.796 h -6.84 v -4.92 c 0.528 0.224 1.07 0.42 1.621 0.597 c 0.011 0.003 0.021 0.008 0.031 0.011 c 0.386 0.123 0.783 0.218 1.179 0.317 c 0.196 0.049 0.389 0.109 0.587 0.151 c 0.321 0.069 0.649 0.115 0.976 0.168 c 0.289 0.047 0.576 0.099 0.867 0.133 c 0.278 0.032 0.559 0.046 0.841 0.066 c 0.246 0.017 0.491 0.05 0.738 0.058 V 85.796 z M 73.42 81.243 v 4.553 h -6.84 v -3.409 h 0.369 c 0.604 0 1.203 -0.034 1.799 -0.091 c 0.236 -0.022 0.467 -0.062 0.701 -0.092 c 0.343 -0.046 0.685 -0.092 1.025 -0.157 c 0.31 -0.058 0.614 -0.131 0.918 -0.204 c 0.241 -0.058 0.481 -0.118 0.72 -0.186 c 0.361 -0.102 0.716 -0.215 1.068 -0.338 C 73.26 81.291 73.341 81.272 73.42 81.243 z M 84 63.335 c 0 6.905 -4.133 12.852 -10.049 15.53 c -0.524 0.236 -1.054 0.445 -1.591 0.626 c -0.028 0.009 -0.054 0.021 -0.082 0.03 c -0.53 0.176 -1.066 0.32 -1.607 0.443 c -0.05 0.011 -0.098 0.027 -0.148 0.038 c -0.508 0.11 -1.022 0.188 -1.539 0.25 c -0.082 0.01 -0.162 0.029 -0.244 0.037 c -0.593 0.063 -1.19 0.096 -1.792 0.096 H 65.58 H 24.42 h -0.409 c -0.538 0 -1.068 -0.032 -1.593 -0.081 c -0.081 -0.007 -0.162 -0.013 -0.243 -0.022 c -0.511 -0.055 -1.016 -0.132 -1.513 -0.232 c -0.07 -0.014 -0.14 -0.03 -0.21 -0.045 c -0.506 -0.108 -1.006 -0.233 -1.494 -0.385 c -0.005 -0.002 -0.01 -0.003 -0.016 -0.004 c -0.465 -0.145 -0.917 -0.317 -1.363 -0.5 c -0.122 -0.05 -0.243 -0.1 -0.364 -0.153 C 11.187 76.333 6.96 70.322 6.96 63.335 v -10.37 H 84 V 63.335 z M 85.836 50.965 H 85 H 5.96 H 4.164 C 2.971 50.965 2 49.994 2 48.801 s 0.971 -2.164 2.164 -2.164 h 81.672 c 1.193 0 2.164 0.971 2.164 2.164 S 87.029 50.965 85.836 50.965 z" style="stroke: none; stroke-width: 1; stroke-dasharray: none; stroke-linecap: butt; stroke-linejoin: miter; stroke-miterlimit: 10; fill: rgb(0,0,0); fill-rule: nonzero; opacity: 1;" transform=" matrix(1 0 0 1 0 0) " stroke-linecap="round" />
	<path d="M 27.512 75.218 c 0.552 0 1 -0.447 1 -1 s -0.448 -1 -1 -1 c -7.315 0 -13.267 -5.951 -13.267 -13.267 c 0 -0.553 -0.448 -1 -1 -1 s -1 0.447 -1 1 C 12.245 68.369 19.094 75.218 27.512 75.218 z" style="stroke: none; stroke-width: 1; stroke-dasharray: none; stroke-linecap: butt; stroke-linejoin: miter; stroke-miterlimit: 10; fill: rgb(0,0,0); fill-rule: nonzero; opacity: 1;" transform=" matrix(1 0 0 1 0 0) " stroke-linecap="round" />
</g>
</svg>