<svg xmlns="http://www.w3.org/2000/svg" version="1.1" xmlns:xlink="http://www.w3.org/1999/xlink" xmlns:svgjs="http://svgjs.dev/svgjs" width="1500" height="329" viewBox="0 0 1500 329"><g transform="matrix(1,0,0,1,-0.9090909090909918,-0.4849789937538844)"><svg viewBox="0 0 396 87" data-background-color="#ffffff" preserveAspectRatio="xMidYMid meet" height="329" width="1500" xmlns="http://www.w3.org/2000/svg" xmlns:xlink="http://www.w3.org/1999/xlink"><g id="tight-bounds" transform="matrix(1,0,0,1,0.2400000000000091,0.12824672479206356)"><svg viewBox="0 0 395.52 86.74350655041586" height="86.74350655041586" width="395.52"><g><svg viewBox="0 0 521.6926676550302 114.41507719973208" height="86.74350655041586" width="395.52"><g transform="matrix(1,0,0,1,126.17266765503014,32.30540866014735)"><svg viewBox="0 0 395.52 49.804259879437375" height="49.804259879437375" width="395.52"><g id="textblocktransform"><svg viewBox="0 0 395.52 49.804259879437375" height="49.804259879437375" width="395.52" id="textblock"><g><svg viewBox="0 0 395.52 49.804259879437375" height="49.804259879437375" width="395.52"><g transform="matrix(1,0,0,1,0,0)"><svg width="395.52" viewBox="5.75 -35.4 373.23 47" height="49.804259879437375" data-palette-color="#66aa4f"><g class="wordmark-text-0" data-fill-palette-color="primary" id="text-0"><path d="M43.25-34.8L43.25 0 37.85 0 37.85-29 27.5 0 21.7 0 11.15-28.85 11.15 0 5.75 0 5.75-34.8 14.65-34.8 24.7-7.4 34.5-34.8 43.25-34.8ZM70.6-26.1L76.15-26.1 61.2 11.6 55.9 11.6 60.3 0.55 49.85-26.1 55.35-26.1 63.1-5.75 70.6-26.1ZM105.84-34.8L111.25-34.8 111.25 0 105.84 0 105.84-15.75 88.15-15.75 88.15 0 82.75 0 82.75-34.8 88.15-34.8 88.15-20.65 105.84-20.65 105.84-34.8ZM132.99 0.6Q129.14 0.6 126.29-1.1 123.44-2.8 121.92-5.88 120.39-8.95 120.39-13.05L120.39-13.05Q120.39-17.15 121.92-20.23 123.44-23.3 126.29-25 129.14-26.7 132.99-26.7L132.99-26.7Q136.84-26.7 139.69-25 142.54-23.3 144.07-20.23 145.59-17.15 145.59-13.05L145.59-13.05Q145.59-8.95 144.07-5.88 142.54-2.8 139.69-1.1 136.84 0.6 132.99 0.6L132.99 0.6ZM132.99-3.95Q136.34-3.95 138.09-6.38 139.84-8.8 139.84-13.05L139.84-13.05Q139.84-17.3 138.09-19.73 136.34-22.15 132.99-22.15L132.99-22.15Q129.64-22.15 127.92-19.73 126.19-17.3 126.19-13.05L126.19-13.05Q126.19-8.8 127.92-6.38 129.64-3.95 132.99-3.95L132.99-3.95ZM183.09-26.7Q186.79-26.7 188.87-24.4 190.94-22.1 190.94-18.15L190.94-18.15 190.94 0 185.54 0 185.54-16.15Q185.54-19.05 184.56-20.48 183.59-21.9 181.44-21.9L181.44-21.9Q179.64-21.9 178.22-21.13 176.79-20.35 175.19-18.75L175.19-18.75 175.19-18.15 175.19 0 169.79 0 169.79-16.15Q169.79-19.05 168.81-20.48 167.84-21.9 165.69-21.9L165.69-21.9Q163.89-21.9 162.47-21.13 161.04-20.35 159.44-18.75L159.44-18.75 159.44 0 154.04 0 154.04-20.3 152.94-26.1 158.09-26.1 158.89-22.6Q161.04-24.8 162.92-25.75 164.79-26.7 167.34-26.7L167.34-26.7Q169.89-26.7 171.72-25.58 173.54-24.45 174.39-22.4L174.39-22.4Q176.64-24.7 178.56-25.7 180.49-26.7 183.09-26.7L183.09-26.7ZM222.99-13.05L222.99-11.35 204.64-11.35Q205.04-7.9 207.06-5.93 209.09-3.95 212.54-3.95L212.54-3.95Q214.79-3.95 217.14-4.83 219.49-5.7 221.69-7.35L221.69-7.35 221.89-7.35 221.89-2.5Q217.74 0.6 212.49 0.6L212.49 0.6Q208.44 0.6 205.44-1.1 202.44-2.8 200.84-5.93 199.24-9.05 199.24-13.15L199.24-13.15Q199.24-17.1 200.71-20.18 202.19-23.25 204.94-24.98 207.69-26.7 211.34-26.7L211.34-26.7Q214.94-26.7 217.56-24.98 220.19-23.25 221.59-20.15 222.99-17.05 222.99-13.05L222.99-13.05ZM211.34-22.3Q208.59-22.3 206.84-20.38 205.09-18.45 204.69-15.25L204.69-15.25 217.44-15.25Q217.04-18.55 215.51-20.43 213.99-22.3 211.34-22.3L211.34-22.3ZM263.44-17.4Q263.44-11.5 261.16-7.23 258.88-2.95 254.64-0.95L254.64-0.95 259.79 8.5 254.24 8.5 249.84 0.4Q248.64 0.6 246.99 0.6L246.99 0.6Q241.84 0.6 238.11-1.63 234.39-3.85 232.46-7.93 230.54-12 230.54-17.4L230.54-17.4Q230.54-22.8 232.46-26.88 234.39-30.95 238.11-33.18 241.84-35.4 246.99-35.4L246.99-35.4Q252.14-35.4 255.86-33.18 259.59-30.95 261.51-26.88 263.44-22.8 263.44-17.4L263.44-17.4ZM236.29-17.4Q236.29-11.15 239.04-7.65 241.79-4.15 246.99-4.15L246.99-4.15Q252.19-4.15 254.94-7.65 257.69-11.15 257.69-17.4L257.69-17.4Q257.69-23.65 254.94-27.15 252.19-30.65 246.99-30.65L246.99-30.65Q241.79-30.65 239.04-27.15 236.29-23.65 236.29-17.4L236.29-17.4ZM295.83 0L290.68 0 289.88-3.5Q287.43-1.3 285.41-0.35 283.38 0.6 280.73 0.6L280.73 0.6Q277.13 0.6 274.98-1.78 272.83-4.15 272.83-7.95L272.83-7.95 272.83-26.1 278.23-26.1 278.23-9.95Q278.23-7.25 279.28-5.73 280.33-4.2 282.33-4.2L282.33-4.2Q284.28-4.2 285.91-5 287.53-5.8 289.33-7.45L289.33-7.45 289.33-26.1 294.73-26.1 294.73-5.8 295.83 0ZM315.98 0.6Q312.13 0.6 309.28-1.1 306.43-2.8 304.91-5.88 303.38-8.95 303.38-13.05L303.38-13.05Q303.38-17.15 304.91-20.23 306.43-23.3 309.28-25 312.13-26.7 315.98-26.7L315.98-26.7Q319.83-26.7 322.68-25 325.53-23.3 327.06-20.23 328.58-17.15 328.58-13.05L328.58-13.05Q328.58-8.95 327.06-5.88 325.53-2.8 322.68-1.1 319.83 0.6 315.98 0.6L315.98 0.6ZM315.98-3.95Q319.33-3.95 321.08-6.38 322.83-8.8 322.83-13.05L322.83-13.05Q322.83-17.3 321.08-19.73 319.33-22.15 315.98-22.15L315.98-22.15Q312.63-22.15 310.91-19.73 309.18-17.3 309.18-13.05L309.18-13.05Q309.18-8.8 310.91-6.38 312.63-3.95 315.98-3.95L315.98-3.95ZM343.13-35.4L343.13-26.1 349.78-26.1 349.78-21.8 343.13-21.8 343.13-7.9Q343.13-6.05 343.9-5 344.68-3.95 346.23-3.95L346.23-3.95Q347.83-3.95 349.83-4.9L349.83-4.9 349.83-0.3Q347.73 0.6 345.08 0.6L345.08 0.6Q341.53 0.6 339.63-1.55 337.73-3.7 337.73-7.65L337.73-7.65 337.73-21.8 333.28-21.8 333.28-26.1 337.73-26.1 337.73-33.1 343.13-35.4ZM378.98-13.05L378.98-11.35 360.63-11.35Q361.03-7.9 363.05-5.93 365.08-3.95 368.53-3.95L368.53-3.95Q370.78-3.95 373.13-4.83 375.48-5.7 377.68-7.35L377.68-7.35 377.88-7.35 377.88-2.5Q373.73 0.6 368.48 0.6L368.48 0.6Q364.43 0.6 361.43-1.1 358.43-2.8 356.83-5.93 355.23-9.05 355.23-13.15L355.23-13.15Q355.23-17.1 356.7-20.18 358.18-23.25 360.93-24.98 363.68-26.7 367.33-26.7L367.33-26.7Q370.93-26.7 373.55-24.98 376.18-23.25 377.58-20.15 378.98-17.05 378.98-13.05L378.98-13.05ZM367.33-22.3Q364.58-22.3 362.83-20.38 361.08-18.45 360.68-15.25L360.68-15.25 373.43-15.25Q373.03-18.55 371.5-20.43 369.98-22.3 367.33-22.3L367.33-22.3Z" fill="#66aa4f" data-fill-palette-color="primary"></path></g></svg></g></svg></g></svg></g></svg></g><g><svg viewBox="0 0 114.41507719973208 114.41507719973208" height="114.41507719973208" width="114.41507719973208"><g><svg></svg></g><g id="icon-0"><svg viewBox="0 0 114.41507719973208 114.41507719973208" height="114.41507719973208" width="114.41507719973208"><g><rect width="104.03296834271936" height="104.03296834271936" x="5.191054428506362" y="5.191054428506362" fill="#66aa4f" data-fill-palette-color="accent"></rect><rect width="104.03296834271936" height="104.03296834271936" x="10.382108857012724" y="0" fill="#66aa4f" opacity="0.5" data-fill-palette-color="accent"></rect></g><g transform="matrix(1,0,0,1,14.83158408144675,15.772824249649972)"><svg viewBox="0 0 84.75190903683858 82.86942870043214" height="82.86942870043214" width="84.75190903683858"><g><svg xmlns="http://www.w3.org/2000/svg" xmlns:xlink="http://www.w3.org/1999/xlink" version="1.1" x="0" y="0" viewBox="38.28994581719334 38.548828993691075 23.42037637390665 22.900171006308923" enable-background="new 0 0 100 100" xml:space="preserve" height="82.86942870043214" width="84.75190903683858" class="icon-dxe-0" data-fill-palette-color="quaternary" id="dxe-0"><path fill="#ffffff" d="M61.283 49.143L51.102 38.961A1.44 1.44 0 0 0 49.948 38.557 1.43 1.43 0 0 0 48.792 38.96L38.717 49.036A1.458 1.458 0 0 0 40.779 51.098L40.884 50.993V59.992C40.884 60.797 41.537 61.449 42.342 61.449H57.549C58.355 61.449 59.007 60.797 59.007 59.992V50.992L59.22 51.204A1.454 1.454 0 0 0 61.282 51.204 1.455 1.455 0 0 0 61.283 49.143M56.092 58.532H43.801V48.076L49.947 41.93 56.093 48.076V58.532z" data-fill-palette-color="quaternary"></path></svg></g></svg></g></svg></g></svg></g></svg></g><defs></defs></svg><rect width="395.52" height="86.74350655041586" fill="none" stroke="none" visibility="hidden"></rect></g></svg></g></svg>