<?xml version="1.0" standalone="no"?>
<!DOCTYPE svg PUBLIC "-//W3C//DTD SVG 20010904//EN"
 "http://www.w3.org/TR/2001/REC-SVG-20010904/DTD/svg10.dtd">
<svg version="1.0" xmlns="http://www.w3.org/2000/svg"
 width="300.000000pt" height="164.000000pt" viewBox="0 0 300.000000 164.000000"
 preserveAspectRatio="xMidYMid meet">
<metadata>
Created by potrace 1.10, written by Peter Selinger 2001-2011
</metadata>
<g transform="translate(0.000000,164.000000) scale(0.100000,-0.100000)"
fill="#000000" stroke="none">
<path d="M1041 1626 c84 -30 146 -86 170 -155 6 -18 13 -30 16 -27 7 6 -32 87
-55 113 -27 31 -119 83 -145 83 -16 -1 -12 -4 14 -14z"/>
<path d="M2013 1617 c-6 -13 -35 -50 -64 -82 -41 -47 -44 -51 -12 -21 47 44
109 126 95 126 -5 0 -13 -10 -19 -23z"/>
<path d="M1711 1539 c-6 -20 -23 -47 -36 -59 -27 -25 -35 -51 -9 -30 23 20 66
98 62 112 -3 7 -10 -3 -17 -23z"/>
<path d="M1050 1533 c14 -10 50 -40 80 -68 l54 -50 -36 45 c-20 25 -56 56 -80
68 -25 14 -33 16 -18 5z"/>
<path d="M842 1378 c-20 -20 -14 -65 10 -82 28 -20 58 -21 58 -2 0 9 -7 12
-18 9 -24 -6 -45 21 -37 47 4 13 15 20 31 20 13 0 24 5 24 10 0 14 -54 12 -68
-2z"/>
<path d="M930 1337 c0 -51 1 -52 30 -53 18 -1 30 3 30 11 0 8 -8 11 -20 8 -18
-5 -20 0 -20 41 0 25 -4 46 -10 46 -5 0 -10 -24 -10 -53z"/>
<path d="M1010 1338 c0 -52 1 -53 29 -53 16 0 33 3 37 8 4 4 -5 7 -19 7 -17 0
-27 5 -27 15 0 8 9 15 20 15 11 0 20 5 20 10 0 6 -9 10 -20 10 -11 0 -20 5
-20 10 0 6 9 10 19 10 11 0 23 5 26 10 4 6 -8 10 -29 10 l-36 0 0 -52z"/>
<path d="M1109 1363 c-18 -48 -22 -83 -10 -83 6 0 11 7 11 15 0 21 30 19 46
-2 22 -31 27 -6 9 46 -19 57 -40 66 -56 24z"/>
<path d="M1200 1335 c0 -30 5 -55 10 -55 6 0 10 17 10 38 l1 37 20 -38 c11
-21 25 -37 30 -35 6 2 12 27 14 56 3 42 1 52 -12 52 -12 0 -14 -7 -8 -36 7
-42 -6 -39 -25 6 -21 50 -40 38 -40 -25z"/>
<path d="M1310 1335 c0 -30 5 -55 10 -55 6 0 10 25 10 55 0 30 -4 55 -10 55
-5 0 -10 -25 -10 -55z"/>
<path d="M1350 1335 c0 -30 5 -55 10 -55 6 0 10 19 10 43 l0 42 23 -39 c34
-60 47 -58 47 8 0 31 -4 56 -10 56 -5 0 -10 -17 -10 -37 l-1 -38 -20 38 c-30
56 -49 49 -49 -18z"/>
<path d="M1472 1378 c-13 -13 -16 -57 -4 -74 10 -16 46 -26 66 -18 10 4 16 17
16 35 0 22 -5 29 -20 29 -11 0 -20 -4 -20 -10 0 -5 5 -10 10 -10 6 0 10 -7 10
-16 0 -19 -29 -15 -43 7 -15 24 -1 49 27 49 14 0 28 5 31 10 9 14 -58 13 -73
-2z"/>
<path d="M1607 1383 c-15 -14 -6 -40 19 -51 28 -14 23 -36 -7 -27 -22 7 -27
-13 -5 -21 19 -7 56 13 56 31 0 7 -12 23 -27 34 -27 19 -27 20 -6 21 12 0 25
5 28 10 7 11 -47 14 -58 3z"/>
<path d="M1690 1335 c0 -54 0 -55 30 -55 19 0 30 5 30 14 0 9 -7 12 -20 9 -14
-4 -20 0 -20 11 0 9 8 16 20 16 11 0 20 5 20 10 0 6 -9 10 -20 10 -11 0 -20 5
-20 10 0 6 9 10 20 10 11 0 20 5 20 10 0 6 -13 10 -30 10 -30 0 -30 -1 -30
-55z"/>
<path d="M1770 1335 c0 -30 5 -55 10 -55 6 0 10 11 10 25 0 14 5 25 10 25 6 0
15 -11 20 -25 5 -14 14 -25 20 -25 12 0 13 20 0 40 -5 9 -5 19 1 26 18 21 -1
44 -37 44 l-34 0 0 -55z"/>
<path d="M1860 1383 c0 -22 33 -103 41 -103 10 0 29 39 44 89 5 17 4 22 -6 19
-8 -3 -19 -22 -25 -44 l-11 -39 -9 39 c-8 34 -34 64 -34 39z"/>
<path d="M1966 1338 c2 -73 24 -76 24 -4 0 38 -4 56 -12 56 -9 0 -13 -16 -12
-52z"/>
<path d="M2022 1378 c-7 -7 -12 -27 -12 -45 0 -26 6 -36 24 -45 14 -6 33 -7
43 -3 16 7 15 8 -6 14 -50 13 -55 71 -6 71 14 0 25 5 25 10 0 14 -54 12 -68
-2z"/>
<path d="M2104 1339 c1 -51 1 -52 34 -54 21 -2 32 2 32 10 0 8 -8 11 -20 8
-14 -4 -20 0 -20 11 0 9 8 16 20 16 11 0 20 5 20 10 0 6 -9 10 -20 10 -11 0
-20 5 -20 10 0 6 9 10 20 10 11 0 20 5 20 10 0 6 -15 10 -33 10 l-33 0 0 -51z"/>
<path d="M2910 1218 c-11 -18 -19 -44 -19 -58 1 -21 2 -20 9 7 4 18 15 44 24
58 9 14 14 25 11 25 -3 0 -14 -15 -25 -32z"/>
<path d="M1607 1225 c-3 -11 -8 -36 -11 -55 -5 -30 -3 -29 9 10 8 25 14 49 12
55 -2 5 -6 1 -10 -10z"/>
<path d="M1684 1202 c-12 -15 -24 -38 -28 -52 -6 -19 -3 -17 14 10 12 19 29
43 38 53 8 9 11 17 6 16 -5 0 -18 -12 -30 -27z"/>
<path d="M1300 1136 c0 -11 71 -136 77 -136 2 0 -12 30 -33 68 -41 74 -44 79
-44 68z"/>
<path d="M1533 1065 c0 -38 2 -53 4 -32 2 20 2 52 0 70 -2 17 -4 1 -4 -38z"/>
<path d="M1150 1113 c0 -6 5 -15 10 -18 16 -10 12 -46 -7 -69 -18 -21 -18 -21
5 -2 12 11 22 29 22 41 0 22 -29 69 -30 48z"/>
<path d="M607 1082 c-18 -19 -23 -42 -9 -42 4 0 12 10 17 22 15 33 43 35 48 3
4 -24 4 -24 3 2 -1 35 -34 43 -59 15z"/>
<path d="M2447 985 c-33 -32 -37 -41 -35 -80 1 -49 29 -88 44 -63 4 7 3 10 -1
5 -10 -9 -35 46 -35 77 0 25 34 60 67 70 26 8 78 -16 87 -39 9 -25 7 -73 -4
-80 -5 -3 -10 -11 -10 -18 0 -6 7 -1 16 11 36 51 0 135 -62 148 -24 5 -36 -1
-67 -31z"/>
<path d="M655 970 c4 -14 9 -32 12 -42 3 -10 -2 -18 -14 -21 -15 -4 -14 -5 5
-6 26 -1 28 14 6 60 -10 23 -13 26 -9 9z"/>
<path d="M1424 957 c3 -16 6 -35 7 -41 1 -18 18 27 18 50 1 13 -5 21 -15 21
-12 0 -14 -7 -10 -30z"/>
<path d="M339 963 c-34 -5 -50 -39 -35 -73 14 -33 36 -49 56 -42 11 5 8 8 -10
12 -20 5 -25 12 -26 38 -1 34 6 38 37 22 17 -10 19 -7 19 20 0 16 -3 29 -7 29
-5 -1 -20 -4 -34 -6z"/>
<path d="M1620 920 c-35 -34 -35 -36 -14 -44 12 -4 14 -1 9 14 -6 18 -1 22 21
19 4 0 10 4 14 11 5 8 14 8 36 -1 40 -17 54 -19 54 -9 0 14 -44 42 -48 30 -3
-7 -10 -7 -22 0 -15 8 -25 4 -50 -20z"/>
<path d="M2435 929 c-12 -18 5 -24 66 -24 40 0 59 4 59 12 0 7 -11 12 -25 11
-14 -1 -25 -6 -25 -10 0 -4 -5 -8 -11 -8 -6 0 -8 8 -5 18 6 16 5 16 -8 -1 -12
-15 -14 -16 -20 -2 -6 17 -22 20 -31 4z"/>
<path d="M2736 912 c-3 -6 -14 -8 -25 -5 -22 6 -52 -22 -45 -42 10 -24 26 -17
19 8 -5 19 -4 20 7 6 7 -9 19 -15 26 -13 7 1 8 0 2 -3 -16 -8 -12 -26 5 -19
31 11 8 -20 -30 -42 -18 -11 -19 -11 -2 -12 22 0 56 38 57 63 0 9 4 17 10 17
5 0 6 8 3 17 -5 12 0 10 16 -6 12 -12 26 -19 30 -16 5 2 12 -2 15 -11 5 -13 9
-14 21 -4 22 18 19 29 -10 36 -14 3 -22 10 -19 15 3 5 -6 9 -20 9 -13 0 -31 3
-39 6 -8 3 -18 1 -21 -4z"/>
<path d="M1007 892 c-9 -10 -23 -39 -31 -64 -13 -43 -12 -47 5 -51 30 -8 59 4
59 24 0 10 -4 21 -10 24 -5 3 -10 -1 -10 -9 0 -9 -5 -16 -11 -16 -5 0 -7 5 -4
10 3 6 2 10 -4 10 -6 0 -8 6 -5 14 3 8 11 13 19 10 8 -3 12 3 10 18 -2 19 2
24 22 26 20 2 23 -2 18 -18 -4 -12 -2 -20 5 -20 6 0 8 5 5 10 -3 6 -2 10 3 10
5 0 14 -11 20 -25 9 -19 9 -24 0 -22 -7 1 -14 -6 -16 -15 -4 -19 14 -23 36 -9
11 6 9 18 -10 57 -19 41 -28 49 -54 52 -20 2 -36 -3 -47 -16z"/>
<path d="M1757 903 c-16 -16 -4 -108 13 -98 4 3 11 -11 15 -31 4 -23 13 -38
25 -41 21 -6 33 -42 20 -58 -10 -12 -4 -25 12 -25 12 0 10 58 -3 81 -5 11 -14
17 -20 14 -5 -4 -14 6 -19 22 -6 15 -16 39 -24 53 -8 14 -11 39 -9 58 5 32 3
38 -10 25z"/>
<path d="M200 860 c0 -37 -2 -40 -22 -35 -20 5 -23 2 -23 -25 0 -16 5 -29 10
-28 6 0 9 9 7 18 -1 9 4 17 12 17 12 0 13 -4 5 -14 -9 -10 -8 -13 2 -13 12 0
12 -2 0 -9 -8 -5 -10 -14 -6 -21 4 -7 2 -113 -5 -237 -9 -154 -10 -227 -3
-234 7 -7 9 -3 6 13 -3 18 12 285 28 504 1 11 5 1 10 -21 7 -40 7 -40 3 5 -3
25 -5 62 -6 83 0 20 -4 37 -9 37 -5 0 -9 -18 -9 -40z"/>
<path d="M1878 873 c-19 -23 -30 -53 -19 -53 5 0 11 -13 14 -30 5 -24 11 -29
31 -28 19 2 22 5 14 15 -7 9 -6 15 7 19 10 4 21 1 26 -7 9 -16 39 -3 47 20 4
13 -23 11 -79 -5 -9 -3 -25 3 -34 13 -16 16 -16 17 4 25 11 4 21 15 21 25 0
15 2 15 16 -3 8 -10 12 -13 8 -5 -5 10 -3 12 6 6 10 -6 10 -11 -3 -20 -10 -7
-17 -16 -17 -20 0 -4 7 -2 15 5 8 7 24 10 34 7 26 -6 17 17 -14 37 -32 21 -58
20 -77 -1z"/>
<path d="M1575 834 c-3 -20 -9 -42 -12 -50 -3 -8 1 -14 11 -14 11 0 15 8 12
29 -2 16 1 35 6 43 8 10 9 9 5 -4 -3 -9 -1 -19 6 -22 9 -3 8 -8 -3 -16 -13
-10 -13 -11 0 -7 8 2 15 9 14 15 -1 7 -2 21 -2 31 -3 36 -30 32 -37 -5z"/>
<path d="M2506 844 c-23 -23 -21 -47 4 -39 15 5 18 3 14 -9 -3 -9 -11 -13 -16
-10 -6 4 -5 -2 1 -14 6 -12 16 -24 22 -28 8 -5 8 -1 0 14 -9 17 -7 23 10 35
23 16 16 25 -18 22 -12 -1 -19 3 -17 10 3 6 11 12 19 12 8 0 12 -3 10 -7 -2
-4 2 -7 10 -7 13 0 12 4 -2 19 -20 22 -18 22 -37 2z"/>
<path d="M387 842 c7 -4 19 -30 28 -57 16 -54 10 -65 -33 -65 -19 0 -22 4 -17
20 4 13 2 20 -7 20 -8 0 -22 16 -32 36 -20 42 -32 37 -52 -23 -13 -38 -13 -38
5 -15 l18 24 16 -44 c23 -59 21 -65 -9 -34 -29 28 -44 33 -44 14 0 -9 -4 -8
-10 2 -15 22 -12 11 10 -50 24 -65 24 -60 4 -60 -9 0 -13 -5 -9 -12 4 -7 -1
-4 -9 6 -9 11 -16 24 -16 30 0 5 -2 7 -5 4 -10 -10 18 -58 33 -58 17 0 41 28
42 48 0 7 -4 10 -10 7 -6 -4 -10 6 -10 24 0 16 -6 32 -12 35 -7 3 -2 4 12 3
18 -1 26 -9 28 -25 2 -13 9 -21 15 -19 7 2 21 -3 32 -12 18 -15 19 -15 7 1 -9
11 -10 18 -2 23 5 3 10 11 10 17 0 7 -5 7 -14 -1 -11 -9 -15 -6 -19 14 -4 21
-1 25 12 19 9 -4 28 -7 44 -6 18 1 27 -4 27 -15 0 -12 3 -13 14 -4 11 9 15 8
20 -5 10 -27 8 -29 -50 -49 -30 -10 -60 -27 -65 -37 -5 -10 -12 -54 -14 -98
-3 -73 -9 -91 -57 -189 -43 -87 -59 -111 -83 -121 -16 -7 -34 -12 -38 -11 -5
1 -7 -3 -5 -9 2 -7 7 -10 11 -8 3 2 14 -7 22 -20 24 -33 70 -55 83 -39 8 10 0
19 -34 36 -50 27 -53 34 -21 48 17 8 29 7 48 -3 34 -19 37 -18 54 16 16 31 21
54 6 31 -5 -7 -13 -12 -19 -10 -5 2 5 33 24 69 31 57 37 55 19 -7 -3 -10 0 -7
6 7 53 112 68 150 73 185 5 32 3 29 -10 -15 -8 -30 -21 -61 -28 -68 -18 -18
-48 -4 -41 19 4 11 7 53 7 95 1 75 1 76 30 86 19 7 26 13 18 18 -9 5 -8 9 2
13 16 5 16 3 22 -56 5 -49 16 -61 16 -17 0 33 0 33 19 14 10 -10 15 -21 11
-24 -4 -3 -10 -27 -14 -55 -4 -27 -13 -72 -21 -100 -8 -27 -17 -74 -21 -103
l-7 -54 -33 4 c-19 2 -34 0 -34 -4 0 -4 14 -8 30 -8 17 0 30 -5 30 -11 0 -6
-14 -9 -31 -7 -17 2 -31 -1 -30 -7 0 -5 18 -11 39 -13 37 -3 40 -1 46 29 3 17
6 49 6 70 0 22 9 65 20 96 26 77 49 202 38 209 -4 3 -6 9 -4 13 3 3 -4 7 -15
7 -18 0 -18 -2 -5 -12 9 -6 13 -14 9 -17 -9 -9 -33 13 -33 30 0 9 6 12 18 9 9
-3 24 -1 32 4 11 7 6 10 -20 11 -24 1 -28 3 -12 6 12 2 22 11 22 18 0 16 -27
134 -37 162 -5 15 -3 16 8 6 7 -7 22 -13 34 -13 13 0 4 8 -24 20 -43 20 -89
28 -64 12z m-30 -482 c3 -11 2 -12 -4 -3 -6 9 -20 -9 -43 -57 -19 -39 -37 -70
-41 -70 -18 0 -19 22 -1 48 10 15 26 44 36 65 18 39 45 47 53 17z"/>
<path d="M1722 840 c-1 -8 9 -44 21 -79 16 -47 28 -66 46 -73 22 -8 23 -7 10
9 -8 10 -20 23 -26 28 -7 6 -21 37 -32 70 -10 33 -19 53 -19 45z"/>
<path d="M1245 830 c6 -10 -19 -66 -33 -72 -4 -1 -2 -14 5 -28 12 -23 13 -23
13 -4 0 11 9 29 20 39 12 10 20 13 20 6 0 -8 5 -8 19 1 23 14 18 30 -7 21 -9
-3 -3 6 13 21 l30 25 -43 1 c-25 0 -41 -4 -37 -10z"/>
<path d="M330 821 c0 -17 34 -22 49 -6 14 13 12 15 -17 15 -18 0 -32 -4 -32
-9z"/>
<path d="M2389 784 l-34 -35 28 6 c26 7 28 6 21 -19 -9 -38 1 -32 30 17 l26
42 0 -60 c1 -53 2 -58 13 -37 12 21 14 21 30 5 16 -16 17 -16 17 1 0 34 -49
106 -66 99 -9 -3 -19 -1 -23 6 -5 7 -19 -1 -42 -25z"/>
<path d="M487 781 c-9 -16 -17 -40 -16 -53 1 -19 3 -17 10 10 5 17 16 32 24
32 8 0 15 9 15 20 0 28 -13 25 -33 -9z"/>
<path d="M1437 782 c6 -4 13 -30 16 -57 l3 -50 2 58 c2 48 -1 57 -15 57 -12 0
-14 -3 -6 -8z"/>
<path d="M1095 763 c15 -33 11 -67 -7 -71 -10 -2 -18 2 -18 8 0 21 -40 69 -53
64 -16 -6 -51 -63 -43 -71 3 -3 9 3 12 13 15 42 26 46 45 17 10 -15 21 -44 24
-65 4 -21 12 -41 17 -45 7 -4 9 2 6 15 -4 13 1 31 11 43 16 20 18 20 34 4 23
-22 23 -65 0 -65 -10 0 -31 -7 -47 -15 -30 -16 -46 -12 -46 10 0 22 -15 26
-36 9 -10 -9 -14 -13 -7 -10 7 4 14 -6 19 -26 6 -29 8 -30 14 -13 16 43 23
-15 10 -91 -9 -61 -9 -78 2 -91 11 -14 11 -15 0 -9 -16 9 -115 -81 -106 -96 3
-5 0 -7 -8 -6 -14 3 -13 -23 2 -57 4 -11 13 -35 19 -52 9 -29 8 -33 -9 -33
-24 0 -70 55 -70 83 0 21 2 20 25 -7 17 -20 25 -24 25 -13 0 9 -5 19 -11 22
-6 4 -8 13 -5 21 3 8 2 14 -3 14 -12 0 -61 -40 -61 -50 0 -12 85 -100 96 -100
5 0 16 5 24 10 12 8 13 14 2 42 -12 33 -12 33 43 83 51 46 95 100 95 117 0 4
-29 -24 -64 -61 -58 -62 -67 -68 -83 -56 -17 13 -15 17 32 66 28 29 56 58 64
64 14 12 44 133 35 146 -2 4 3 9 11 13 8 3 15 15 15 26 0 11 5 20 10 20 6 0
10 -11 10 -25 0 -14 4 -25 10 -25 5 0 7 14 4 33 -4 22 -2 27 4 17 12 -18 32
-211 32 -302 0 -58 -3 -68 -17 -68 -16 0 -18 11 -19 78 -1 121 -8 211 -15 199
-12 -22 -21 -109 -11 -103 6 4 10 -29 9 -87 0 -85 -1 -88 -7 -32 l-7 60 -1
-72 c-2 -59 1 -73 13 -73 8 0 15 5 15 10 0 6 10 10 23 10 22 -1 22 -1 2 -16
-20 -15 -19 -15 5 -12 22 3 25 8 28 53 7 103 -21 359 -48 448 -6 21 -5 27 6
27 9 0 12 -4 9 -10 -3 -5 -1 -10 5 -10 6 0 8 -6 4 -12 -4 -7 2 -4 14 6 12 11
22 24 22 29 0 6 -7 2 -15 -9 -11 -14 -14 -15 -15 -4 0 23 16 43 29 36 6 -4 11
0 11 9 0 17 -11 14 -44 -14 -18 -15 -19 -15 -13 1 3 10 -1 22 -11 30 -15 12
-16 11 -4 -4 8 -10 9 -19 3 -22 -11 -7 -16 -1 -25 37 -3 15 -11 27 -17 27 -7
0 -8 -7 -4 -17z m25 -172 c0 -4 -15 -13 -32 -19 -18 -5 -25 -10 -15 -11 20 -1
23 -27 3 -34 -7 -3 -19 -33 -25 -67 -7 -34 -15 -60 -18 -57 -2 3 0 29 6 59 6
29 12 66 14 82 4 32 67 77 67 47z"/>
<path d="M2673 763 c-4 -10 -11 -21 -17 -25 -6 -4 5 -8 25 -8 42 0 49 5 42 31
-7 24 -41 25 -50 2z"/>
<path d="M1290 760 c0 -5 -6 -10 -14 -10 -8 0 -17 -4 -20 -9 -11 -18 6 -41 31
-41 19 0 22 3 15 16 -5 9 -7 25 -5 35 3 11 3 19 -1 19 -3 0 -6 -4 -6 -10z"/>
<path d="M1700 764 c0 -5 -18 -9 -39 -9 -22 0 -38 -3 -35 -6 2 -4 27 -7 56 -7
29 -1 48 2 43 6 -6 4 -13 11 -17 16 -5 6 -8 5 -8 0z"/>
<path d="M1999 699 c48 -110 49 -105 -8 -112 -53 -6 -111 -31 -111 -47 0 -6 7
-10 15 -10 8 0 15 4 15 9 0 5 9 7 20 4 11 -3 20 -14 20 -24 0 -21 -40 -28 -40
-6 0 7 -5 5 -10 -5 -18 -30 -40 -214 -35 -288 4 -70 13 -98 22 -72 6 17 33 15
33 -3 0 -8 -8 -16 -17 -16 -57 -4 -79 -10 -90 -25 -19 -25 -16 -33 13 -44 28
-11 52 -2 86 32 19 19 21 32 32 188 2 25 11 80 20 124 9 43 15 81 12 83 -2 2
-12 -32 -22 -77 -14 -67 -20 -79 -34 -75 -11 3 -17 0 -17 -10 0 -9 6 -14 13
-11 18 7 24 -32 14 -84 -5 -25 -9 -48 -10 -52 0 -5 -6 -8 -14 -8 -27 0 -34
121 -14 253 6 42 15 72 18 66 6 -8 13 -8 30 1 16 9 21 18 17 36 -3 20 0 24 19
24 17 0 24 -6 24 -20 0 -10 6 -23 14 -27 14 -8 22 -124 18 -265 -2 -61 -4 -68
-22 -68 -18 0 -20 7 -20 75 0 68 2 75 20 75 11 0 20 5 20 10 0 6 -11 10 -24
10 -19 0 -25 6 -28 28 -2 15 -2 -25 0 -88 2 -74 7 -117 15 -122 9 -6 9 -8 0
-8 -7 0 -13 -4 -13 -8 0 -18 45 -6 53 13 5 11 11 86 14 168 8 185 -2 224 -56
233 -58 9 -60 15 -3 10 41 -4 54 -2 59 10 6 17 -39 140 -62 170 -8 10 -2 -10
14 -47z"/>
<path d="M533 732 c21 -23 12 -34 -22 -25 l-26 6 19 -22 c17 -19 21 -20 28 -6
5 8 13 15 18 15 16 0 11 -40 -5 -46 -8 -4 -15 -12 -15 -20 0 -8 -4 -14 -9 -14
-10 0 -26 -39 -19 -46 8 -7 78 94 78 113 0 11 -10 29 -23 41 -28 27 -47 29
-24 4z"/>
<path d="M2580 730 c6 -10 16 -23 24 -27 7 -4 21 -21 31 -37 17 -25 20 -26 31
-12 10 15 12 14 18 -9 4 -14 4 -30 1 -34 -2 -5 2 -14 9 -20 25 -21 26 5 3 51
l-22 44 20 18 c19 16 19 16 -7 0 -16 -9 -28 -23 -28 -32 0 -8 -16 6 -36 31
-37 47 -64 64 -44 27z"/>
<path d="M2757 722 c2 -10 -4 -40 -15 -67 -12 -31 -17 -58 -12 -70 6 -16 9
-12 15 20 3 22 11 53 16 69 12 37 12 66 0 66 -5 0 -7 -8 -4 -18z"/>
<path d="M2550 721 c0 -17 55 -115 75 -131 8 -7 22 -9 32 -5 15 6 15 8 3 13
-20 7 -40 28 -40 42 0 6 -4 9 -10 5 -5 -3 -20 16 -34 42 -14 26 -25 42 -26 34z"/>
<path d="M1266 682 c-30 -3 -36 -6 -25 -14 11 -7 9 -9 -9 -5 -12 3 -20 1 -16
-4 9 -16 84 -11 91 6 7 20 6 21 -41 17z"/>
<path d="M1893 683 c-8 -3 -13 -23 -13 -51 0 -54 10 -49 26 13 11 45 10 48
-13 38z"/>
<path d="M960 669 c0 -9 14 -13 37 -10 6 1 14 -3 18 -9 3 -5 14 -10 23 -10 11
0 13 3 5 11 -14 14 -83 29 -83 18z"/>
<path d="M2540 660 c0 -38 16 -57 23 -28 4 14 1 29 -8 38 -13 13 -15 11 -15
-10z"/>
<path d="M903 590 c0 -36 2 -50 4 -32 2 17 2 47 0 65 -2 17 -4 3 -4 -33z"/>
<path d="M1454 565 c0 -49 1 -71 3 -48 2 23 2 64 0 90 -2 26 -3 8 -3 -42z"/>
<path d="M1940 629 c-7 -13 -8 -25 -3 -30 6 -6 14 0 21 15 14 31 -3 45 -18 15z"/>
<path d="M966 560 c-3 -17 -1 -41 4 -55 6 -16 6 -27 -2 -31 -7 -5 -8 -2 -3 7
7 11 5 11 -10 -1 -17 -14 -17 -15 0 -18 9 -2 21 0 26 5 15 15 28 72 18 78 -5
4 -9 15 -9 26 0 30 -17 22 -24 -11z"/>
<path d="M2540 572 c0 -5 9 -17 21 -28 17 -16 22 -16 29 -4 8 13 13 13 37 0
16 -9 28 -22 28 -30 0 -19 25 -39 48 -40 26 0 20 16 -15 43 -65 49 -148 82
-148 59z"/>
<path d="M2344 538 c-19 -23 -19 -23 2 -5 11 9 28 17 37 17 23 0 47 -39 47
-75 0 -45 -29 -124 -50 -135 -10 -5 -20 -19 -23 -31 -5 -20 -5 -20 15 -2 59
52 90 200 50 236 -26 23 -55 21 -78 -5z"/>
<path d="M366 481 c-3 -41 -4 -76 -2 -78 6 -6 19 123 14 139 -3 7 -8 -20 -12
-61z"/>
<path d="M2602 522 c-27 -4 -37 -27 -47 -104 -8 -65 -1 -95 24 -103 11 -3 26
-32 41 -78 28 -83 27 -81 29 -106 1 -20 37 -35 47 -20 3 5 -2 9 -10 9 -9 0
-16 4 -16 10 0 12 40 34 48 26 3 -3 0 -6 -6 -6 -7 0 -12 -4 -12 -10 0 -5 9
-10 20 -10 11 0 20 -5 20 -12 0 -6 2 -9 5 -6 3 3 0 18 -7 33 -10 23 -17 26
-44 22 -32 -5 -32 -5 -58 66 -21 58 -26 90 -26 165 0 55 -4 92 -10 92 -5 0
-10 5 -10 10 0 23 28 7 53 -31 19 -29 27 -54 27 -85 0 -53 28 -185 42 -199 10
-10 10 -8 -7 55 -7 24 -6 24 25 -6 28 -28 31 -34 20 -54 -10 -18 -9 -24 1 -31
21 -13 29 -11 29 7 0 8 -5 12 -11 8 -8 -4 -8 0 0 15 14 25 24 26 40 7 17 -20
-12 -78 -34 -70 -10 4 -15 0 -15 -14 0 -29 21 -39 34 -17 6 10 22 31 35 46 23
29 23 59 0 59 -7 0 -19 7 -28 15 -9 9 -34 29 -56 46 -50 38 -53 47 -54 136 -1
58 -4 71 -15 67 -15 -6 -41 30 -32 45 9 14 -17 27 -42 23z m-3 -106 c0 -28 -4
-60 -8 -71 -7 -18 -9 -17 -14 10 -11 56 -7 112 9 112 10 0 14 -13 13 -51z"/>
<path d="M1337 473 c18 -2 50 -2 70 0 21 2 7 4 -32 4 -38 0 -55 -2 -38 -4z"/>
<path d="M1453 380 c0 -47 2 -66 4 -42 2 23 2 61 0 85 -2 23 -4 4 -4 -43z"/>
<path d="M939 434 c-8 -10 -9 -15 -2 -11 6 4 13 4 16 0 2 -5 2 -2 0 5 -1 8 3
12 9 9 7 -2 12 -11 10 -21 -2 -9 2 -16 8 -16 17 0 7 44 -11 48 -9 1 -22 -5
-30 -14z"/>
<path d="M656 433 c-3 -4 -6 -26 -6 -50 0 -56 32 -118 73 -143 32 -20 87 -27
87 -11 0 4 -10 6 -23 4 -49 -10 -125 73 -127 138 0 33 8 41 31 28 11 -5 19 -6
19 -2 -1 12 -47 43 -54 36z"/>
<path d="M1598 367 c-5 -10 -7 -69 -7 -130 l2 -112 8 75 c11 86 8 195 -3 167z"/>
<path d="M1453 175 c0 -38 2 -53 4 -32 2 20 2 52 0 70 -2 17 -4 1 -4 -38z"/>
<path d="M82 218 c2 -9 -6 -24 -17 -32 -17 -13 -18 -15 -3 -16 9 0 22 8 27 18
6 9 11 12 11 7 0 -6 -5 -16 -12 -23 -15 -15 -4 -26 18 -18 9 4 14 12 10 22 -3
8 -2 13 2 11 4 -3 16 -1 27 4 16 6 14 8 -12 8 -19 1 -36 8 -43 19 -10 15 -10
15 -8 0z"/>
<path d="M310 160 c-18 -33 -8 -43 59 -56 65 -14 91 -10 91 11 0 8 -13 11 -37
10 -47 -3 -83 10 -83 29 0 25 -18 28 -30 6z"/>
<path d="M397 163 c-15 -14 -5 -23 25 -23 30 0 31 1 12 15 -22 16 -28 18 -37
8z"/>
<path d="M707 152 c-10 -10 -17 -23 -17 -28 0 -4 7 2 16 14 17 25 61 30 84 10
12 -11 12 -10 1 5 -17 22 -63 22 -84 -1z"/>
<path d="M1113 147 c5 -17 47 -28 47 -13 0 8 -11 16 -25 19 -15 2 -24 0 -22
-6z"/>
<path d="M1189 136 c7 -8 21 -18 32 -21 10 -4 19 -11 19 -17 0 -11 -94 -7
-122 6 -14 6 -18 4 -18 -12 0 -17 9 -21 65 -27 35 -3 69 -4 75 0 21 13 9 44
-27 65 -23 13 -32 16 -24 6z"/>
<path d="M1972 104 c-18 -19 -9 -29 27 -32 34 -3 46 10 32 35 -6 10 -11 12
-11 6 0 -15 -27 -18 -32 -4 -1 5 -9 3 -16 -5z"/>
<path d="M2626 74 c-3 -9 -6 -18 -6 -20 0 -2 29 -4 65 -4 57 0 65 2 65 19 0
17 -4 17 -42 7 -32 -9 -42 -8 -45 2 -6 17 -30 15 -37 -4z"/>
</g>
</svg>
